<?xml version="1.0" standalone="no"?>
<!DOCTYPE svg PUBLIC "-//W3C//DTD SVG 20010904//EN"
 "http://www.w3.org/TR/2001/REC-SVG-20010904/DTD/svg10.dtd">
<svg version="1.0" xmlns="http://www.w3.org/2000/svg"
 width="558.000000pt" height="558.000000pt" viewBox="0 0 558.000000 558.000000"
 preserveAspectRatio="xMidYMid meet">
<metadata>
Created by potrace 1.11, written by Peter Selinger 2001-2013
</metadata>
<g transform="translate(0.000000,558.000000) scale(0.100000,-0.100000)"
fill="#000000" stroke="none">
<path d="M2535 4946 c-11 -18 -182 -318 -712 -1251 -72 -126 -140 -246 -151
-265 -11 -19 -29 -51 -40 -70 -11 -19 -185 -325 -387 -680 -202 -355 -390
-684 -417 -732 l-50 -87 77 -133 c42 -73 81 -137 86 -142 5 -6 223 -10 536
-10 l527 -1 59 -105 c33 -58 78 -139 101 -180 22 -42 115 -209 206 -372 l165
-296 185 0 185 0 169 291 c93 161 176 303 185 317 10 14 59 97 109 186 l93
160 531 0 c467 -1 531 1 537 14 3 9 41 77 85 153 l78 137 -30 48 c-16 26 -116
198 -222 382 -106 184 -223 387 -260 450 -37 63 -78 133 -90 155 -12 22 -71
123 -130 225 -180 311 -675 1168 -728 1260 -25 45 -232 401 -266 460 -15 25
-33 59 -42 75 l-16 31 -180 0 c-171 0 -181 -1 -193 -20z m324 -28 c-10 -20
-147 -256 -484 -838 -110 -189 -176 -304 -467 -805 -140 -242 -260 -450 -267
-463 -11 -20 -4 -36 67 -155 43 -72 111 -188 152 -257 40 -69 88 -150 106
-180 18 -30 31 -56 29 -58 -2 -2 -67 -4 -145 -5 -112 0 -144 3 -151 14 -101
165 -225 359 -229 359 -5 0 -17 -20 -73 -120 -16 -30 -68 -122 -115 -205 -47
-82 -134 -238 -195 -345 -60 -107 -116 -206 -124 -219 -15 -23 -16 -20 -84 99
l-70 121 69 122 c39 67 216 379 394 692 336 589 476 836 509 893 11 18 68 119
128 225 60 106 200 352 311 547 111 195 234 410 272 478 l69 122 155 0 155 0
-12 -22z m213 -293 c86 -148 165 -286 176 -305 11 -19 51 -89 89 -155 156
-270 232 -400 483 -835 145 -250 272 -470 283 -490 10 -19 47 -82 81 -140 35
-58 76 -130 93 -160 17 -30 110 -192 207 -359 l176 -303 -74 -129 c-53 -94
-76 -126 -83 -117 -5 7 -126 208 -268 446 l-258 433 -27 -43 c-15 -24 -61
-101 -102 -173 -41 -71 -130 -224 -198 -340 -68 -115 -180 -309 -250 -430
-241 -419 -483 -830 -495 -844 -11 -11 -16 -9 -29 17 -8 16 -123 212 -254 434
-132 221 -244 412 -250 423 -10 20 -7 20 131 20 l142 0 51 -90 c28 -50 77
-138 110 -197 32 -60 61 -108 64 -108 3 0 23 30 45 67 22 38 102 174 178 303
670 1130 730 1234 730 1244 0 6 -63 124 -140 261 -77 138 -151 270 -165 295
-14 25 -77 137 -140 250 -159 282 -387 691 -432 772 -21 37 -41 70 -45 72 -4
3 -46 -61 -93 -142 -308 -529 -836 -1434 -855 -1469 l-24 -42 24 -38 c13 -21
26 -45 30 -53 4 -8 25 -44 47 -79 22 -34 40 -64 40 -66 0 -2 52 -90 115 -196
63 -106 112 -195 110 -197 -6 -6 -254 -7 -259 -1 -6 7 -365 617 -368 627 -3 8
104 196 711 1242 200 344 397 684 440 757 57 99 79 129 87 120 6 -7 81 -133
166 -282z m-129 -308 c19 -34 46 -82 59 -107 31 -56 438 -782 465 -830 245
-433 324 -582 319 -596 -3 -7 -168 -289 -367 -626 -200 -337 -397 -671 -439
-743 -96 -163 -104 -175 -110 -175 -8 0 -130 224 -130 237 0 6 24 51 54 100
55 90 229 388 321 548 28 50 122 211 209 358 86 148 162 279 168 292 9 21 -3
46 -97 212 -60 103 -116 202 -125 218 -10 17 -75 129 -145 250 -70 121 -137
238 -149 260 -12 22 -70 124 -129 226 l-107 186 76 131 c42 72 80 129 85 127
4 -3 23 -33 42 -68z m-78 -462 c76 -132 163 -283 193 -335 30 -52 64 -111 75
-130 11 -19 92 -161 180 -314 l161 -279 -25 -46 c-56 -103 -343 -586 -351
-592 -8 -5 -739 -6 -760 -1 -3 1 -26 37 -51 80 -25 42 -109 184 -186 316
l-141 239 23 41 c22 39 395 677 630 1079 60 103 111 186 112 185 1 -2 65 -111
140 -243z m-1311 -1506 l76 -120 -59 -102 c-32 -56 -78 -138 -101 -182 -24
-44 -47 -86 -53 -92 -7 -10 142 -13 743 -13 413 0 750 -4 748 -8 -1 -5 -32
-59 -68 -120 l-64 -112 -898 0 c-494 0 -898 2 -898 5 0 3 100 182 222 398 122
215 231 409 242 430 11 20 23 37 27 37 3 0 41 -54 83 -121z m2677 -320 c138
-231 249 -422 247 -425 -3 -2 -228 -3 -501 -2 l-496 3 67 117 67 117 233 1
233 0 -87 128 c-48 70 -105 150 -127 179 l-39 52 72 126 c40 69 74 125 76 125
2 0 117 -189 255 -421z m-2568 148 c15 -23 14 -23 -14 -23 -33 0 -33 0 -19 27
13 24 14 24 33 -4z m2161 -15 c3 -5 -1 -9 -9 -9 -8 0 -15 4 -15 9 0 4 4 8 9 8
6 0 12 -4 15 -8z m-746 -41 c-1 -4 -34 -63 -73 -129 l-70 -121 -737 -1 -736 0
71 130 72 130 738 0 c406 0 737 -4 735 -9z m852 -112 c47 -67 87 -125 88 -130
2 -5 -82 -9 -187 -9 -105 0 -191 2 -191 5 0 3 33 62 73 130 67 116 74 125 102
125 27 0 39 -13 115 -121z m-1608 -438 c3 0 31 -43 60 -93 30 -51 151 -255
268 -453 117 -198 215 -363 217 -367 2 -5 -70 -8 -161 -8 -91 0 -166 4 -166 8
0 5 -26 55 -58 113 -32 57 -75 136 -97 174 -21 39 -66 120 -100 180 -34 61
-78 139 -98 175 -19 36 -60 110 -91 164 -30 55 -53 102 -51 106 3 4 253 6 277
1z m438 3 c0 -2 -9 -19 -21 -39 l-21 -35 -19 37 c-10 20 -19 38 -19 39 0 0 18
1 40 1 22 0 40 -1 40 -3z"/>
</g>
</svg>
